<svg>
<defs>

<svg id ="CSS" viewBox="0 0 128 128">
<path fill="#131313" d="M89.234 5.856h-7.384l7.679 8.333v3.967h-15.816v-4.645h7.678l-7.678-8.333v-3.971h15.521v4.649zm-18.657 0h-7.384l7.679 8.333v3.967h-15.817v-4.645h7.679l-7.679-8.333v-3.971h15.522v4.649zm-18.474.19h-7.968v7.271h7.968v4.839h-13.632v-16.949h13.632v4.839z"></path><path fill="#1572B6" d="M27.613 116.706l-8.097-90.813h88.967l-8.104 90.798-36.434 10.102-36.332-10.087z"></path><path fill="#33A9DC" d="M64.001 119.072l29.439-8.162 6.926-77.591h-36.365v85.753z"></path><path fill="#fff" d="M64 66.22h14.738l1.019-11.405h-15.757v-11.138h27.929000000000002l-.267 2.988-2.737 30.692h-24.925v-11.137z"></path><path fill="#EBEBEB" d="M64.067 95.146l-.049.014-12.404-3.35-.794-8.883h-11.178999999999998l1.561 17.488 22.814 6.333.052-.015v-11.587z"></path><path fill="#fff" d="M77.792 76.886l-1.342 14.916-12.422 3.353v11.588l22.833-6.328.168-1.882 1.938-21.647h-11.175z"></path><path fill="#EBEBEB" d="M64.039 43.677v11.136999999999999h-26.903000000000002l-.224-2.503-.507-5.646-.267-2.988h27.901zM64 66.221v11.138h-12.247l-.223-2.503-.508-5.647-.267-2.988h13.245z"></path>
</svg>

<svg id="TypeScript" xmlns="http://www.w3.org/2000/svg" viewBox="0 0 128 128"><defs><style>.cls-1{fill:#fff;}.cls-2{fill:#007acc;}</style></defs><title>Artboard 3</title><g id="original"><rect class="cls-1" x="22.67" y="47" width="99.67" height="73.67"/><path id="original-2" data-name="original" class="cls-2" d="M1.5,63.91v62.5h125V1.41H1.5Zm100.73-5a15.56,15.56,0,0,1,7.82,4.5,20.58,20.58,0,0,1,3,4c0,.16-5.4,3.81-8.69,5.85-.12.08-.6-.44-1.13-1.23a7.09,7.09,0,0,0-5.87-3.53c-3.79-.26-6.23,1.73-6.21,5a4.58,4.58,0,0,0,.54,2.34c.83,1.73,2.38,2.76,7.24,4.86,8.95,3.85,12.78,6.39,15.16,10,2.66,4,3.25,10.46,1.45,15.24-2,5.2-6.9,8.73-13.83,9.9a38.32,38.32,0,0,1-9.52-.1,23,23,0,0,1-12.72-6.63c-1.15-1.27-3.39-4.58-3.25-4.82a9.34,9.34,0,0,1,1.15-.73L82,101l3.59-2.08.75,1.11a16.78,16.78,0,0,0,4.74,4.54c4,2.1,9.46,1.81,12.16-.62a5.43,5.43,0,0,0,.69-6.92c-1-1.39-3-2.56-8.59-5-6.45-2.78-9.23-4.5-11.77-7.24a16.48,16.48,0,0,1-3.43-6.25,25,25,0,0,1-.22-8c1.33-6.23,6-10.58,12.82-11.87A31.66,31.66,0,0,1,102.23,58.93ZM72.89,64.15l0,5.12H56.66V115.5H45.15V69.26H28.88v-5A49.19,49.19,0,0,1,29,59.09C29.08,59,39,59,51,59L72.83,59Z"/></g></svg>


<svg id="Java" xmlns="http://www.w3.org/2000/svg" xmlns:xlink="http://www.w3.org/1999/xlink" viewBox="0 0 48 48" version="1.1" width="480px" height="480px">
<g id="surface1">
<path style=" fill:#F44336;" d="M 23.648438 24.898438 C 22.652344 23.289063 21.929688 21.953125 20.925781 19.441406 C 19.230469 15.199219 31.238281 11.367188 26.371094 4 C 28.480469 9.089844 18.792969 12.234375 17.894531 16.472656 C 17.070313 20.371094 23.644531 24.898438 23.648438 24.898438 Z "/>
<path style=" fill:#F44336;" d="M 23.878906 17.269531 C 23.6875 19.785156 26.105469 21.128906 26.175781 22.964844 C 26.234375 24.460938 24.730469 25.707031 24.730469 25.707031 C 24.730469 25.707031 27.457031 25.171875 28.308594 22.890625 C 29.253906 20.355469 26.476563 18.621094 26.761719 16.59375 C 27.027344 14.652344 32.792969 11.050781 32.792969 11.050781 C 32.792969 11.050781 24.3125 11.609375 23.878906 17.269531 Z "/>
<path style=" fill:#1565C0;" d="M 32.085938 25.054688 C 33.839844 24.660156 35.316406 25.777344 35.316406 27.066406 C 35.316406 29.964844 31.296875 32.707031 31.296875 32.707031 C 31.296875 32.707031 37.519531 31.964844 37.519531 27.203125 C 37.519531 24.054688 34.464844 23.265625 32.085938 25.054688 Z "/>
<path style=" fill:#1565C0;" d="M 29.128906 27.394531 C 29.128906 27.394531 31.070313 26.011719 31.585938 25.492188 C 26.824219 26.503906 15.949219 26.640625 15.949219 25.761719 C 15.949219 24.953125 19.457031 24.125 19.457031 24.125 C 19.457031 24.125 11.683594 24.011719 11.683594 26.304688 C 11.683594 28.695313 21.859375 28.867188 29.128906 27.394531 Z "/>
<path style=" fill:#1565C0;" d="M 27.933594 29.570313 C 23.425781 31.070313 15.121094 30.589844 17.582031 28.578125 C 16.382813 28.578125 14.605469 29.539063 14.605469 30.46875 C 14.605469 32.324219 23.589844 33.757813 30.238281 31.039063 Z "/>
<path style=" fill:#1565C0;" d="M 18.6875 32.738281 C 17.050781 32.738281 15.992188 33.792969 15.992188 34.5625 C 15.992188 36.953125 25.75 37.191406 29.617188 34.765625 L 27.160156 33.132813 C 24.269531 34.402344 17.015625 34.578125 18.6875 32.738281 Z "/>
<path style=" fill:#1565C0;" d="M 36.28125 36.632813 C 36.28125 35.695313 35.226563 35.253906 34.847656 35.042969 C 37.074219 40.417969 12.53125 40 12.53125 36.828125 C 12.53125 36.105469 14.339844 35.402344 16.007813 35.734375 L 14.589844 34.894531 C 11.261719 34.375 9 35.835938 9 37.015625 C 9 42.519531 36.28125 42.253906 36.28125 36.632813 Z "/>
<path style=" fill:#1565C0;" d="M 39 38.605469 C 34.855469 42.699219 24.339844 44.191406 13.769531 41.660156 C 24.339844 46.164063 38.949219 43.628906 39 38.605469 Z "/>
</g>
</svg>

<svg id="JavaScript" viewBox="0 0 128 128">
<path fill="#F0DB4F" d="M1.408 1.408h125.184v125.185h-125.184z"></path><path fill="#323330" d="M116.347 96.736c-.917-5.711-4.641-10.508-15.672-14.981-3.832-1.761-8.104-3.022-9.377-5.926-.452-1.69-.512-2.642-.226-3.665.821-3.32 4.784-4.355 7.925-3.403 2.023.678 3.938 2.237 5.093 4.724 5.402-3.498 5.391-3.475 9.163-5.879-1.381-2.141-2.118-3.129-3.022-4.045-3.249-3.629-7.676-5.498-14.756-5.355l-3.688.477c-3.534.893-6.902 2.748-8.877 5.235-5.926 6.724-4.236 18.492 2.975 23.335 7.104 5.332 17.54 6.545 18.873 11.531 1.297 6.104-4.486 8.08-10.234 7.378-4.236-.881-6.592-3.034-9.139-6.949-4.688 2.713-4.688 2.713-9.508 5.485 1.143 2.499 2.344 3.63 4.26 5.795 9.068 9.198 31.76 8.746 35.83-5.176.165-.478 1.261-3.666.38-8.581zm-46.885-37.793h-11.709l-.048 30.272c0 6.438.333 12.34-.714 14.149-1.713 3.558-6.152 3.117-8.175 2.427-2.059-1.012-3.106-2.451-4.319-4.485-.333-.584-.583-1.036-.667-1.071l-9.52 5.83c1.583 3.249 3.915 6.069 6.902 7.901 4.462 2.678 10.459 3.499 16.731 2.059 4.082-1.189 7.604-3.652 9.448-7.401 2.666-4.915 2.094-10.864 2.07-17.444.06-10.735.001-21.468.001-32.237z"></path>
</svg>

<svg id="Python" xmlns="http://www.w3.org/2000/svg" xmlns:xlink="http://www.w3.org/1999/xlink" viewBox="0 0 48 48" version="1.1" width="480px" height="480px">
<g id="surface1">
<path style=" fill:#0277BD;" d="M 24.046875 5 C 22.492188 5.003906 21.414063 5.140625 20.109375 5.367188 C 16.261719 6.035156 15.5625 7.445313 15.5625 10.035156 L 15.5625 14 L 24.5625 14 L 24.5625 16 L 10.871094 16 C 8.234375 16 5.925781 17.242188 5.195313 20.21875 C 4.371094 23.636719 4.332031 25.777344 5.195313 29.34375 C 5.851563 32.003906 7.292969 34 9.929688 34 L 13.5625 34 L 13.5625 28.894531 C 13.5625 25.929688 16.25 23 19.328125 23 L 26.5625 23 C 29.085938 23 31.5625 21.136719 31.5625 18.621094 L 31.5625 10.035156 C 31.5625 7.597656 29.804688 5.773438 27.34375 5.363281 C 27.40625 5.359375 25.589844 4.992188 24.046875 5 Z M 19.0625 9 C 19.882813 9 20.5625 9.675781 20.5625 10.503906 C 20.5625 11.335938 19.882813 12 19.0625 12 C 18.226563 12 17.5625 11.335938 17.5625 10.503906 C 17.5625 9.679688 18.226563 9 19.0625 9 Z "/>
<path style=" fill:#FFC107;" d="M 23.078125 43 C 24.632813 42.996094 25.710938 42.859375 27.015625 42.632813 C 30.863281 41.964844 31.5625 40.554688 31.5625 37.964844 L 31.5625 34 L 22.5625 34 L 22.5625 32 L 36.257813 32 C 38.890625 32 41.199219 30.757813 41.929688 27.78125 C 42.757813 24.363281 42.792969 22.222656 41.929688 18.65625 C 41.273438 15.996094 39.832031 14 37.195313 14 L 33.5625 14 L 33.5625 19.105469 C 33.5625 22.070313 30.875 25 27.796875 25 L 20.5625 25 C 18.039063 25 15.5625 26.863281 15.5625 29.378906 L 15.5625 37.964844 C 15.5625 40.402344 17.320313 42.226563 19.78125 42.636719 C 19.71875 42.640625 21.535156 43.007813 23.078125 43 Z M 28.0625 39 C 27.242188 39 26.5625 38.324219 26.5625 37.496094 C 26.5625 36.664063 27.242188 36 28.0625 36 C 28.898438 36 29.5625 36.664063 29.5625 37.496094 C 29.5625 38.320313 28.898438 39 28.0625 39 Z "/>
</g>
</svg>


</defs>
</svg>