<svg>
<defs>
<svg id="TypeScript" viewBox="0 0 128 128">
<path id="original-2" data-name="original" class="cls-2" d="M1.5,63.91v62.5h125V1.41H1.5Zm100.73-5a15.56,15.56,0,0,1,7.82,4.5,20.58,20.58,0,0,1,3,4c0,.16-5.4,3.81-8.69,5.85-.12.08-.6-.44-1.13-1.23a7.09,7.09,0,0,0-5.87-3.53c-3.79-.26-6.23,1.73-6.21,5a4.58,4.58,0,0,0,.54,2.34c.83,1.73,2.38,2.76,7.24,4.86,8.95,3.85,12.78,6.39,15.16,10,2.66,4,3.25,10.46,1.45,15.24-2,5.2-6.9,8.73-13.83,9.9a38.32,38.32,0,0,1-9.52-.1,23,23,0,0,1-12.72-6.63c-1.15-1.27-3.39-4.58-3.25-4.82a9.34,9.34,0,0,1,1.15-.73L82,101l3.59-2.08.75,1.11a16.78,16.78,0,0,0,4.74,4.54c4,2.1,9.46,1.81,12.16-.62a5.43,5.43,0,0,0,.69-6.92c-1-1.39-3-2.56-8.59-5-6.45-2.78-9.23-4.5-11.77-7.24a16.48,16.48,0,0,1-3.43-6.25,25,25,0,0,1-.22-8c1.33-6.23,6-10.58,12.82-11.87A31.66,31.66,0,0,1,102.23,58.93ZM72.89,64.15l0,5.12H56.66V115.5H45.15V69.26H28.88v-5A49.19,49.19,0,0,1,29,59.09C29.08,59,39,59,51,59L72.83,59Z"></path>
</svg>

<svg id="Java" viewBox="0 0 128 128">
<path fill="#0074BD" d="M52.581 67.817s-3.284 1.911 2.341 2.557c6.814.778 10.297.666 17.805-.753 0 0 1.979 1.237 4.735 2.309-16.836 7.213-38.104-.418-24.881-4.113zM50.522 58.402s-3.684 2.729 1.945 3.311c7.28.751 13.027.813 22.979-1.103 0 0 1.373 1.396 3.536 2.157-20.352 5.954-43.021.469-28.46-4.365z"></path><path fill="#EA2D2E" d="M67.865 42.431c4.151 4.778-1.088 9.074-1.088 9.074s10.533-5.437 5.696-12.248c-4.519-6.349-7.982-9.502 10.771-20.378.001 0-29.438 7.35-15.379 23.552z"></path><path fill="#0074BD" d="M90.132 74.781s2.432 2.005-2.678 3.555c-9.716 2.943-40.444 3.831-48.979.117-3.066-1.335 2.687-3.187 4.496-3.576 1.887-.409 2.965-.334 2.965-.334-3.412-2.403-22.055 4.719-9.469 6.762 34.324 5.563 62.567-2.506 53.665-6.524zM54.162 48.647s-15.629 3.713-5.534 5.063c4.264.57 12.758.439 20.676-.225 6.469-.543 12.961-1.704 12.961-1.704s-2.279.978-3.93 2.104c-15.874 4.175-46.533 2.23-37.706-2.038 7.463-3.611 13.533-3.2 13.533-3.2zM82.2 64.317c16.135-8.382 8.674-16.438 3.467-15.353-1.273.266-1.845.496-1.845.496s.475-.744 1.378-1.063c10.302-3.62 18.223 10.681-3.322 16.345 0 0 .247-.224.322-.425z"></path><path fill="#EA2D2E" d="M72.474 1.313s8.935 8.939-8.476 22.682c-13.962 11.027-3.184 17.313-.006 24.498-8.15-7.354-14.128-13.828-10.118-19.852 5.889-8.842 22.204-13.131 18.6-27.328z"></path><path fill="#0074BD" d="M55.749 87.039c15.484.99 39.269-.551 39.832-7.878 0 0-1.082 2.777-12.799 4.981-13.218 2.488-29.523 2.199-39.191.603 0 0 1.98 1.64 12.158 2.294z"></path><path fill="#EA2D2E" d="M94.866 100.181h-.472v-.264h1.27v.264h-.47v1.317h-.329l.001-1.317zm2.535.066h-.006l-.468 1.251h-.216l-.465-1.251h-.005v1.251h-.312v-1.581h.457l.431 1.119.432-1.119h.454v1.581h-.302v-1.251zM53.211 115.037c-1.46 1.266-3.004 1.978-4.391 1.978-1.974 0-3.045-1.186-3.045-3.085 0-2.055 1.146-3.56 5.738-3.56h1.697v4.667h.001zm4.031 4.548v-14.077c0-3.599-2.053-5.973-6.997-5.973-2.886 0-5.416.714-7.473 1.622l.592 2.493c1.62-.595 3.715-1.147 5.771-1.147 2.85 0 4.075 1.147 4.075 3.521v1.779h-1.424c-6.921 0-10.044 2.685-10.044 6.723 0 3.479 2.058 5.456 5.933 5.456 2.49 0 4.351-1.028 6.088-2.533l.316 2.137h3.163v-.001zM70.694 119.585h-5.027l-6.051-19.689h4.391l3.756 12.099.835 3.635c1.896-5.258 3.24-10.596 3.912-15.733h4.271c-1.143 6.481-3.203 13.598-6.087 19.688zM89.982 115.037c-1.465 1.266-3.01 1.978-4.392 1.978-1.976 0-3.046-1.186-3.046-3.085 0-2.055 1.149-3.56 5.736-3.56h1.701v4.667h.001zm4.033 4.548v-14.077c0-3.599-2.059-5.973-6.999-5.973-2.889 0-5.418.714-7.475 1.622l.593 2.493c1.62-.595 3.718-1.147 5.774-1.147 2.846 0 4.074 1.147 4.074 3.521v1.779h-1.424c-6.923 0-10.045 2.685-10.045 6.723 0 3.479 2.056 5.456 5.93 5.456 2.491 0 4.349-1.028 6.091-2.533l.318 2.137h3.163v-.001zM37.322 122.931c-1.147 1.679-3.005 3.008-5.037 3.757l-1.989-2.345c1.547-.794 2.872-2.075 3.489-3.269.532-1.063.753-2.43.753-5.701v-22.482h4.284v22.173c0 4.375-.348 6.144-1.5 7.867z"></path>
</svg>
</defs>

<svg id="JavaScript" viewBox="0 0 128 128">
<path fill="#F0DB4F" d="M1.408 1.408h125.184v125.185h-125.184z"></path><path fill="#323330" d="M116.347 96.736c-.917-5.711-4.641-10.508-15.672-14.981-3.832-1.761-8.104-3.022-9.377-5.926-.452-1.69-.512-2.642-.226-3.665.821-3.32 4.784-4.355 7.925-3.403 2.023.678 3.938 2.237 5.093 4.724 5.402-3.498 5.391-3.475 9.163-5.879-1.381-2.141-2.118-3.129-3.022-4.045-3.249-3.629-7.676-5.498-14.756-5.355l-3.688.477c-3.534.893-6.902 2.748-8.877 5.235-5.926 6.724-4.236 18.492 2.975 23.335 7.104 5.332 17.54 6.545 18.873 11.531 1.297 6.104-4.486 8.08-10.234 7.378-4.236-.881-6.592-3.034-9.139-6.949-4.688 2.713-4.688 2.713-9.508 5.485 1.143 2.499 2.344 3.63 4.26 5.795 9.068 9.198 31.76 8.746 35.83-5.176.165-.478 1.261-3.666.38-8.581zm-46.885-37.793h-11.709l-.048 30.272c0 6.438.333 12.34-.714 14.149-1.713 3.558-6.152 3.117-8.175 2.427-2.059-1.012-3.106-2.451-4.319-4.485-.333-.584-.583-1.036-.667-1.071l-9.52 5.83c1.583 3.249 3.915 6.069 6.902 7.901 4.462 2.678 10.459 3.499 16.731 2.059 4.082-1.189 7.604-3.652 9.448-7.401 2.666-4.915 2.094-10.864 2.07-17.444.06-10.735.001-21.468.001-32.237z"></path>
</svg>

<svg id="Python" viewBox="0 0 128 128">
<path fill="#646464" d="M52.458 61.139c0-4.071-1.161-6.161-3.483-6.275-.924-.045-1.826.103-2.703.443-.701.251-1.172.499-1.42.75v9.718c1.485.932 2.804 1.364 3.954 1.297 2.433-.162 3.652-2.137 3.652-5.933zm2.863.169c0 2.068-.484 3.785-1.46 5.15-1.087 1.546-2.594 2.34-4.521 2.385-1.453.047-2.949-.409-4.488-1.363v8.833l-2.491-.889v-19.606c.409-.5.935-.931 1.572-1.296 1.482-.864 3.284-1.308 5.404-1.33l.036.035c1.938-.024 3.431.771 4.479 2.385.979 1.48 1.469 3.377 1.469 5.696z"></path><path fill="#646464" d="M70.544 67.104c0 2.773-.278 4.694-.834 5.763-.559 1.068-1.622 1.921-3.191 2.557-1.272.501-2.649.773-4.126.819l-.412-1.569c1.501-.204 2.559-.409 3.172-.613 1.207-.408 2.036-1.035 2.491-1.875.365-.684.545-1.988.545-3.921v-.648c-1.703.773-3.488 1.158-5.354 1.158-1.227 0-2.309-.385-3.24-1.158-1.046-.842-1.57-1.911-1.57-3.205v-10.367l2.491-.853v10.435c0 1.114.359 1.973 1.079 2.574.72.603 1.651.892 2.793.87 1.142-.024 2.365-.467 3.665-1.33v-12.173h2.491v13.536z"></path><path fill="#646464" d="M80.267 68.706c-.297.024-.569.035-.82.035-1.409 0-2.507-.334-3.292-1.008-.783-.674-1.175-1.603-1.175-2.788v-9.811h-1.706v-1.566h1.706v-4.161l2.488-.886v5.047h2.798v1.566h-2.798v9.743c0 .935.25 1.597.752 1.982.43.32 1.115.502 2.046.549v1.298z"></path><path fill="#646464" d="M95.347 68.502h-2.49v-9.614c0-.978-.229-1.82-.684-2.524-.526-.795-1.256-1.193-2.194-1.193-1.142 0-2.57.603-4.284 1.808v11.524h-2.491v-22.98l2.491-.785v10.467c1.591-1.158 3.33-1.738 5.218-1.738 1.319 0 2.387.444 3.205 1.33.82.886 1.229 1.989 1.229 3.308v10.397z"></path><path fill="#646464" d="M108.586 60.747c0-1.565-.297-2.856-.888-3.879-.704-1.245-1.796-1.902-3.273-1.97-2.731.157-4.094 2.114-4.094 5.864 0 1.72.284 3.155.856 4.308.73 1.47 1.826 2.193 3.287 2.169 2.741-.02 4.112-2.184 4.112-6.492zm2.728.016c0 2.227-.57 4.079-1.707 5.56-1.25 1.656-2.978 2.487-5.183 2.487-2.186 0-3.889-.831-5.118-2.487-1.114-1.48-1.671-3.333-1.671-5.56 0-2.093.603-3.853 1.808-5.287 1.272-1.521 2.945-2.283 5.014-2.283 2.068 0 3.752.763 5.049 2.283 1.205 1.434 1.808 3.194 1.808 5.287z"></path><path fill="#646464" d="M125.593 68.502h-2.491v-10.159c0-1.114-.335-1.984-1.006-2.61-.67-.625-1.564-.928-2.679-.903-1.183.022-2.308.41-3.376 1.159v12.514h-2.491v-12.822c1.433-1.044 2.752-1.726 3.957-2.044 1.136-.297 2.139-.444 3.003-.444.591 0 1.147.058 1.67.172.979.226 1.774.646 2.387 1.261.684.682 1.025 1.5 1.025 2.456v11.42z"></path><path fill="url(#a)" d="M17.761 45.612c-1.282.007-2.505.116-3.583.307-3.172.561-3.748 1.734-3.748 3.896v2.857h7.496v.952h-10.309000000000001c-2.179 0-4.086 1.31-4.683 3.8-.688 2.856-.719 4.639 0 7.619.533 2.219 1.805 3.801 3.984 3.801h2.577v-3.424c0-2.475 2.141-4.657 4.683-4.657h7.488c2.084 0 3.748-1.717 3.748-3.809v-7.139c0-2.031-1.714-3.558-3.748-3.896-1.288-.214-2.624-.312-3.905-.307zm-4.054 2.299c.774 0 1.407.643 1.407 1.433 0 .787-.632 1.425-1.407 1.425-.777 0-1.406-.638-1.406-1.425-.001-.79.629-1.433 1.406-1.433z"></path><path fill="url(#b)" d="M26.349 53.625v3.329c0 2.58-2.188 4.752-4.683 4.752h-7.488c-2.051 0-3.748 1.756-3.748 3.81v7.139c0 2.03 1.767 3.227 3.748 3.809 2.373.698 4.648.824 7.488 0 1.887-.546 3.748-1.646 3.748-3.809v-2.857h-7.488v-.952h11.236c2.179 0 2.991-1.52 3.749-3.801.782-2.348.749-4.606 0-7.619-.539-2.168-1.567-3.8-3.749-3.8h-2.813zm-4.212 18.077c.777 0 1.407.636 1.407 1.424 0 .79-.629 1.432-1.407 1.432-.774 0-1.406-.642-1.406-1.432 0-.788.632-1.424 1.406-1.424z"></path><path opacity=".444" fill="url(#c)" enable-background="new" d="M28.057 81.315c0 1.075-4.498 1.948-10.045 1.948-5.548 0-10.046-.873-10.046-1.948 0-1.076 4.498-1.948 10.046-1.948 5.548 0 10.045.872 10.045 1.948z"></path>
</svg>
</svg>